<?xml version="1.0" encoding="UTF-8" standalone="no"?>
<!-- Created with Inkscape (http://www.inkscape.org/) -->

<svg
   width="210mm"
   height="297mm"
   viewBox="0 0 210 297"
   version="1.1"
   id="svg1"
   xml:space="preserve"
   inkscape:version="1.4.2 (f4327f4, 2025-05-13)"
   sodipodi:docname="рисунок.svg"
   xmlns:inkscape="http://www.inkscape.org/namespaces/inkscape"
   xmlns:sodipodi="http://sodipodi.sourceforge.net/DTD/sodipodi-0.dtd"
   xmlns="http://www.w3.org/2000/svg"
   xmlns:svg="http://www.w3.org/2000/svg"><sodipodi:namedview
     id="namedview1"
     pagecolor="#ffffff"
     bordercolor="#000000"
     borderopacity="0.25"
     inkscape:showpageshadow="2"
     inkscape:pageopacity="0.0"
     inkscape:pagecheckerboard="0"
     inkscape:deskcolor="#d1d1d1"
     inkscape:document-units="mm"
     inkscape:zoom="1.3950758"
     inkscape:cx="372.38121"
     inkscape:cy="388.86777"
     inkscape:window-width="1920"
     inkscape:window-height="1001"
     inkscape:window-x="-9"
     inkscape:window-y="-9"
     inkscape:window-maximized="1"
     inkscape:current-layer="layer1" /><defs
     id="defs1" /><g
     inkscape:label="Слой 1"
     inkscape:groupmode="layer"
     id="layer1"><ellipse
       style="fill:#000000;fill-opacity:1;stroke-width:0.264583"
       id="path44"
       cx="127.73275"
       cy="136.55171"
       rx="34.801723"
       ry="27.120691" /><ellipse
       style="fill:#847e87;fill-opacity:1;stroke-width:0.33254"
       id="path45"
       cx="127.8276"
       cy="136.74138"
       rx="33.379311"
       ry="25.982759" /><ellipse
       style="fill:#84bb5e;fill-opacity:1;stroke-width:0.138749"
       id="path46"
       cx="94.543106"
       cy="137.40517"
       rx="1.0431032"
       ry="4.2672415" /><ellipse
       style="fill:#84bb5e;fill-opacity:1;stroke-width:0.138749"
       id="path46-1"
       cx="159.99878"
       cy="136.82816"
       rx="1.0431032"
       ry="4.2672415" /><ellipse
       style="fill:#84bb5e;fill-opacity:1;stroke-width:0.138749"
       id="path46-6"
       cx="-160.89813"
       cy="128.70143"
       rx="1.0431032"
       ry="4.2672415"
       transform="rotate(-90)" /><ellipse
       style="fill:#84bb5e;fill-opacity:1;stroke-width:0.138749"
       id="path46-6-3"
       cx="-111.68384"
       cy="128.4084"
       rx="1.0431032"
       ry="4.2672415"
       transform="rotate(-90)" /><ellipse
       style="fill:#000000;fill-opacity:1;stroke-width:0.264583"
       id="path47"
       cx="128.39656"
       cy="135.41379"
       rx="11.568965"
       ry="11.189655" /><ellipse
       style="fill:#847e87;fill-opacity:1;stroke-width:0.264583"
       id="path48"
       cx="129.15517"
       cy="135.31897"
       rx="8.1551723"
       ry="7.4913793" /><path
       style="fill:#ffff00;fill-opacity:1;stroke-width:0.264583"
       id="path52"
       d="m 125.03274,132.64517 c -0.0776,0.594 -0.1199,1.19059 -0.1396,1.78903 -0.0811,0.66493 0.0517,1.27355 0.29225,1.8883 0.1988,0.44078 0.53385,0.79309 0.80654,1.18663 0.15631,0.22879 0.36082,0.41334 0.59999,0.55291 1.69126,0.98696 1.35486,0.80235 2.28057,1.29917 0.59757,0.32784 1.25297,0.49125 1.92367,0.57534 0.62733,0.0605 1.2532,0.0523 1.87822,-0.0186 0.55629,-0.10462 1.04991,-0.40261 1.55814,-0.63998 0.37462,-0.20837 0.76926,-0.41434 1.07449,-0.72321 0.14784,-0.14961 0.30259,-0.38523 0.42279,-0.55662 0.40094,-0.63811 0.76876,-1.28789 1.01686,-2.00074 0.26367,-0.781 0.20689,-1.2857 -0.002,-2.05368 -0.17629,-0.58315 -0.44529,-0.98515 -0.92156,-1.35767 -1.00654,-0.69532 -2.07964,-1.34514 -3.2607,-1.68803 -0.66836,-0.25317 -1.30615,-0.54505 -2.01471,-0.67008 -0.90796,-0.10187 -1.82783,-0.15251 -2.74093,-0.10621 -0.32262,0.0598 -0.68201,0.007 -0.99638,0.1192 -0.3478,0.12406 -0.59947,0.40218 -0.85889,0.64928 -0.39763,0.32105 -0.68529,0.70146 -0.83037,1.1903 -0.0974,0.44144 -0.0775,0.89747 -0.0772,1.34663 0,0 1.75449,0.89343 1.75449,0.89343 v 0 c -0.002,-0.43173 -0.0147,-0.86823 0.0584,-1.29531 0.11957,-0.46042 0.39755,-0.80348 0.76112,-1.10756 0.13721,-0.12901 0.33698,-0.33167 0.50225,-0.42783 0.38155,-0.22203 0.8486,-0.17569 1.26963,-0.22896 0.9053,-0.0362 1.81817,0.007 2.71388,0.14582 0.69544,0.15997 1.33283,0.46163 2.00657,0.68922 0.30633,0.10296 0.59825,0.21797 0.89009,0.3571 0.0741,0.0353 0.29129,0.1514 0.22087,0.10914 -2.1639,-1.29833 -1.8229,-1.08473 -1.22644,-0.70375 0.14153,0.10276 0.29673,0.18838 0.42645,0.3057 0.26802,0.24245 0.40948,0.61384 0.54923,0.93633 0.2183,0.74166 0.3287,1.18156 0.0682,1.95414 -0.2379,0.69817 -0.60344,1.32699 -0.99571,1.94939 -0.12168,0.17203 -0.24403,0.36221 -0.3964,0.51058 -0.30037,0.29248 -0.68366,0.48468 -1.04836,0.68075 -0.49542,0.22543 -0.97635,0.51381 -1.52391,0.58587 -0.61599,0.0608 -1.23568,0.0537 -1.85078,-0.0209 -0.65729,-0.10154 -1.29198,-0.29235 -1.87272,-0.62486 -0.88051,-0.48501 -0.0836,-0.0491 1.0793,0.63522 0.067,0.0395 -0.13998,-0.0684 -0.20623,-0.10912 -0.15787,-0.097 -0.30546,-0.22082 -0.42276,-0.36384 -0.26822,-0.39382 -0.58476,-0.74564 -0.83233,-1.15327 -0.25867,-0.587 -0.41795,-1.16761 -0.33666,-1.81612 0.0239,-0.58833 0.0556,-1.17759 0.15166,-1.7594 z" /><path
       style="fill:#ffff00;fill-opacity:1;stroke-width:0.264583"
       id="path53"
       d="m 133.17187,133.01272 c -0.18261,0.71175 -0.44969,1.39629 -0.7137,2.08079 -0.20363,0.52484 -0.44823,0.92331 -0.87841,1.28432 -0.40444,0.23359 -0.82451,0.40695 -1.28334,0.49288 -0.28809,0.008 -0.59439,0.0913 -0.88333,0.053 -0.053,-0.007 -0.35493,-0.11262 -0.40313,-0.12903 -0.60933,-0.31738 -1.69042,-0.82415 1.07057,0.62942 0.0696,0.0367 -0.12575,-0.0959 -0.1789,-0.1539 -0.13789,-0.15046 -0.1634,-0.23982 -0.24942,-0.42149 -0.14137,-0.40742 -0.20873,-0.84613 -0.17499,-1.27681 0.0609,-0.39319 0.17939,-0.78311 0.34674,-1.14424 0.18787,-0.34127 0.50636,-0.44507 0.86831,-0.49968 0.46948,-0.0391 0.94151,-0.0315 1.41221,-0.0297 0.35699,-0.0206 0.72205,0.0449 1.07597,-0.024 0.0668,-0.013 0.39377,-0.11028 0.46225,-0.13032 0.95832,-0.15508 0.78501,0.026 -1.46194,-1.13889 -0.0604,-0.0313 -0.13333,0.0272 -0.2004,0.0386 -0.072,0.0122 -0.14446,0.0216 -0.21669,0.0324 -0.32168,-0.0473 -0.65454,-0.0571 -0.96761,-0.1537 -0.32483,-0.10023 -0.64372,-0.27057 -0.95911,-0.39856 -0.68138,-0.17702 -1.37516,-0.36069 -2.08058,-0.4047 -0.0852,0.0306 -0.177,0.0469 -0.25562,0.0918 -0.48556,0.27717 -0.64346,0.99244 -0.7905,1.48034 -0.20316,0.73377 -0.26316,1.4937 -0.18649,2.24954 0.085,0.55715 0.38332,0.96274 0.81836,1.29793 1.00105,0.66429 1.99655,1.40394 3.20306,1.57195 0.51232,0.0739 1.02959,0.018 1.53085,-0.0992 0.56032,-0.044 0.98894,-0.34974 1.45823,-0.61941 0.46161,-0.33025 0.82678,-0.72482 1.03968,-1.25153 0.13845,-0.31148 0.22742,-0.65651 0.39331,-0.95593 0.0777,-0.14032 0.18201,-0.2642 0.27127,-0.39748 0.38457,-0.58776 0.38468,-0.882 0.11567,-1.52674 -0.44969,-0.67769 -1.02532,-1.28068 -1.67266,-1.77297 -1.47808,-1.00825 -1.92553,-1.27416 -3.42297,-1.32302 -0.4906,-0.0469 -0.95004,0.0323 -1.40915,0.19531 -0.37372,0.10225 -0.63029,0.4073 -0.85655,0.70373 -0.30939,0.70888 -0.10963,0.16991 1.7788,1.02004 0.044,0.0198 0.0891,-0.0377 0.13544,-0.0512 0.21866,-0.0633 0.4494,-0.0778 0.67459,-0.0996 0.50094,-0.0534 1.00485,0.0123 1.49606,0.11329 0.2619,0.0521 0.54164,0.10264 0.78845,0.21083 0.0752,0.033 0.28502,0.1631 0.21351,0.12277 -1.52139,-0.85799 -1.94912,-1.14981 -1.27372,-0.70015 0.431,0.30979 0.53488,0.82653 0.60807,1.32101 0.10573,0.65575 -0.3629,1.10203 -0.80015,1.51627 -0.12116,0.11107 -0.23935,0.22546 -0.36348,0.33321 -0.10273,0.0892 -0.40735,0.37356 -0.59358,0.3889 -0.0654,0.005 -0.23578,-0.11503 -0.17752,-0.0849 1.647,0.85188 1.76982,1.3494 1.4703,0.55188 -0.0557,-0.4976 0.17995,-0.96101 0.19589,-1.45244 -0.0836,-0.83908 -1.52244,-1.5343 -2.01719,-0.79366 -0.18622,0.27878 -0.30662,0.60523 -0.45919,0.90275 -0.19333,0.33287 -0.31687,0.70697 -0.5252,1.03171 -0.0761,0.11868 -0.17275,0.22296 -0.25525,0.3373 -0.23274,0.36679 -0.56545,0.5977 -0.96615,0.74549 -0.48672,0.14754 -0.93075,0.38263 -1.45168,0.34294 -0.19463,-0.0483 -0.11603,-0.002 -0.2447,-0.12159 0.53951,0.3083 1.07478,0.62414 1.61852,0.92489 0.018,0.01 -0.0304,-0.0301 -0.0363,-0.0497 -0.0207,-0.0689 0.002,-0.0954 0.0257,-0.15602 0.21184,-0.19292 0.55116,-0.19564 0.81994,-0.16561 0.74678,0.26947 2.07893,1.07293 -0.83974,-0.56995 0.64885,0.54762 1.33703,0.86328 2.13557,1.30571 0.17317,0.0959 0.45186,0.11189 0.64196,0.15984 0.45214,0.11518 0.91572,0.16451 1.38035,0.19051 0.48154,-0.12 0.93391,-0.37144 1.29552,-0.70921 0.37394,-0.4384 0.6339,-0.97796 0.79771,-1.52887 0.26845,-0.67226 0.0991,-0.19486 -1.75154,-0.99426 -0.009,-0.004 -0.69762,0.78389 -0.73736,0.8334 -0.35623,0.51943 -0.67597,1.0716 -1.12319,1.51977 -0.40717,0.37097 -0.88437,0.62906 -1.41556,0.76403 -0.27151,0.0405 -0.54785,0.0957 -0.82384,0.0947 -0.71365,-0.003 -1.83028,-0.87009 1.27906,0.84922 -0.2198,-0.0525 0.27582,-0.42019 0.31748,-0.44949 0.54828,-0.49467 0.99128,-1.08706 1.42734,-1.67913 0.47394,-0.67467 0.75151,-1.14465 0.72812,-1.98369 -0.095,-0.74392 -0.073,-1.4963 -0.0619,-2.24436 0.0349,-1.14426 -0.26775,-1.83439 -2.01405,-1.953 -0.74774,0.0647 -0.24998,0.009 1.66408,1.19985 0.0412,0.0256 0.88037,0.0208 0.98479,0.0229 0.23334,0.0416 0.49118,-0.0382 0.72289,0.009 0.38739,0.0789 2.57125,1.3901 -0.94279,-0.57712 0.27829,0.16655 0.47029,0.42983 0.69599,0.65023 0.0379,0.037 0.0124,-0.10571 0.009,-0.15859 -0.47861,-0.22358 -0.99467,-0.32791 -1.5136,-0.40659 -0.58493,-0.0837 -1.17638,-0.0898 -1.76601,-0.0974 -0.69954,0.0363 -1.2808,0.42663 -1.78863,0.87721 -0.28509,0.35906 -0.66463,0.63625 -0.94788,0.99666 -0.0274,0.0349 -0.31027,0.46965 -0.3436,0.52068 -0.74061,1.28454 -0.4364,0.83644 1.49612,1.80078 0.63984,-0.20386 1.22018,-0.56779 1.81284,-0.88089 0.40475,-0.25695 0.86073,-0.41806 1.27719,-0.65229 0.3143,-0.17677 0.60737,-0.39828 0.91235,-0.59093 0.34036,-0.30269 0.70299,-0.44884 1.14754,-0.50512 0.54344,-0.1471 1.05806,-0.35858 1.57364,-0.5786 0.73441,-0.35884 1.20163,0.0982 -1.43107,-1.00724 -0.0529,-0.0222 -0.0189,0.11406 -0.0396,0.1676 -0.0402,0.10387 -0.2467,0.45638 -0.28016,0.51527 -0.4108,0.57911 -0.8321,1.16132 -1.36116,1.63903 -0.46298,0.25952 -0.98664,0.43141 -1.49815,0.57752 -0.57002,0.11683 -1.13134,0.27062 -1.69947,0.39649 -0.49685,0.0528 -0.95149,0.22747 -1.37878,0.48208 -0.21808,0.10527 -0.37727,0.29426 -0.58442,0.41536 -0.024,0.014 -0.10294,0.0127 -0.079,0.0269 1.73014,1.02447 1.40707,1.51625 1.78676,0.83424 0.27544,-0.6823 0.39766,-1.4135 0.49727,-2.13884 0.0689,-0.51061 0.078,-1.0257 0.0829,-1.54 0.0398,-0.56877 0.0592,-0.71724 0.63024,-0.8575 0.72138,-0.13354 1.44892,0.0524 2.16403,0.151 0.60344,0.10595 1.22331,0.0623 1.82614,0.15712 0.20017,0.0425 0.40288,0.0701 0.60458,0.10345 0.0472,0.008 0.18218,0.0507 0.14102,0.0264 -1.64893,-0.9754 -1.85996,-0.32363 -1.64438,-0.9543 -0.53127,0.14077 -1.08137,0.15587 -1.62403,0.22194 -0.70295,0.0328 -1.37043,0.24854 -2.05042,0.40778 0,0 1.61526,1.11566 1.61526,1.11566 v 0 c 0.6696,-0.16898 1.33384,-0.35809 2.02834,-0.39278 0.58508,-0.0595 1.24324,-0.0357 1.75406,-0.35897 0.0323,-0.0609 0.1523,-0.14177 0.0969,-0.18281 -1.27101,-0.94097 -1.39968,-1.01648 -2.50035,-1.16324 -0.60384,-0.0533 -1.21255,-0.0557 -1.81281,-0.15123 -0.73448,-0.10337 -1.48489,-0.26705 -2.2209,-0.0884 -0.62125,0.21454 -0.71012,0.4371 -0.76307,1.07018 -0.001,0.50869 -0.007,1.01821 -0.0609,1.52458 -0.0825,0.69885 -0.18498,1.40987 -0.47639,2.05666 -0.46006,0.72196 -0.21068,0.20973 1.58935,1.24848 0.0252,0.0145 0.30645,-0.23757 0.43583,-0.32552 0.0699,-0.0475 0.144,-0.0883 0.216,-0.13245 0.42111,-0.23051 0.86647,-0.36966 1.34204,-0.43705 0.56942,-0.13543 1.13817,-0.27268 1.70803,-0.4062 0.53092,-0.16642 1.08843,-0.3333 1.54654,-0.65387 0.52604,-0.50672 0.95092,-1.10463 1.38126,-1.69213 0.0266,-0.0432 0.44617,-0.70808 0.3926,-0.75179 -1.41518,-1.15458 -1.15849,-1.40632 -1.97266,-0.99305 -0.49864,0.22652 -1.01266,0.41235 -1.54789,0.53424 -0.4568,0.0843 -0.83357,0.27135 -1.18527,0.57932 -0.2928,0.19492 -0.57777,0.41056 -0.88483,0.58282 -0.41702,0.23397 -0.86645,0.40851 -1.27735,0.6545 -0.59044,0.29363 -1.16417,0.66952 -1.81396,0.81053 0.5297,0.32775 1.07425,0.63263 1.5891,0.98324 0.0262,0.0179 -0.0608,0.0588 -0.0865,0.0401 -0.0683,-0.0498 0.30367,-0.64637 0.32087,-0.69773 0.0541,-0.0843 0.26382,-0.41562 0.32484,-0.4927 0.27993,-0.35361 0.64021,-0.63826 0.93156,-0.98163 0.4935,-0.42024 1.04565,-0.76115 1.71683,-0.75316 0.5829,0.008 1.16746,0.0245 1.74411,0.11828 0.52716,0.0966 1.03003,0.25627 1.53777,0.42057 0.0612,-0.0399 0.13482,-0.0653 0.18365,-0.11962 0.17998,-0.20029 -0.54645,-0.73196 -0.65329,-0.85192 -0.31634,-0.18497 -1.64651,-1.20917 -2.47767,-1.29535 -0.23688,-0.0246 -0.48054,0.0152 -0.7178,-0.009 -0.71881,-0.017 -3.13898,-0.27445 0.52257,1.14089 0.64521,0.27761 0.0583,0.0293 -1.50265,-0.91765 -0.0333,-0.0202 0.0775,0.0255 0.10307,0.0548 0.0338,0.0389 0.054,0.0896 0.0661,0.13967 0.041,0.16933 0.0266,0.42064 0.0257,0.58386 -0.004,0.74906 -0.0424,1.50692 0.0465,2.25081 0.0159,0.1886 0.0442,0.37928 0.009,0.56874 -0.0896,0.48359 -0.39408,0.90416 -0.65383,1.30664 -0.42793,0.57654 -0.86884,1.15039 -1.42461,1.61147 -0.26919,0.20407 -0.49111,0.42328 -0.50056,0.78245 1.73005,0.97388 1.51417,1.20818 3.01748,0.89269 0.55133,-0.1672 1.04801,-0.45642 1.46992,-0.85197 0.44105,-0.46254 0.76938,-1.01018 1.12397,-1.53856 0.98886,-1.17255 1.29542,-0.56978 -0.91629,-1.84961 -0.0187,-0.0108 -0.006,0.0427 -0.01,0.0641 -0.11094,0.52594 -0.37598,1.03318 -0.73299,1.43262 -0.33838,0.29256 -0.75651,0.54309 -1.21099,0.57634 -0.45724,-0.0344 -0.91199,-0.0961 -1.35529,-0.21724 -0.10611,-0.0274 -0.32613,-0.0806 -0.43436,-0.12194 -0.062,-0.0237 -0.23766,-0.11812 -0.18075,-0.0839 2.77168,1.6672 1.75888,1.11346 1.23774,0.67456 -0.70331,-0.42064 -1.65457,-1.18438 -2.59132,-1.33446 -0.3538,0.0124 -0.72951,0.0532 -0.95547,0.35855 -0.44043,0.94602 1.09067,1.47379 1.96183,1.53657 0.52538,-0.0324 1.00098,-0.24095 1.49579,-0.40545 0.42154,-0.18353 0.77394,-0.44631 1.0256,-0.83875 0.0886,-0.12197 0.18895,-0.23595 0.26819,-0.36421 0.20281,-0.32829 0.31943,-0.70506 0.51279,-1.03841 0.1048,-0.20087 0.19453,-0.40941 0.30072,-0.60955 0.044,-0.0829 0.0903,-0.16534 0.1472,-0.23991 0.0367,-0.048 0.18069,-0.09 0.13141,-0.125 -1.47046,-1.04536 -2.29078,-0.7812 -1.57649,-0.99103 0.11339,0.49032 -0.27306,0.99136 -0.1933,1.49344 0.019,0.10372 -0.0259,0.24608 0.0571,0.31117 0.56779,0.4455 1.19319,0.81605 1.82473,1.16535 0.0701,0.0388 0.16399,0.004 0.23926,-0.0238 0.39061,-0.14283 0.644,-0.54109 0.96609,-0.77747 0.48053,-0.44247 1.00649,-0.95318 0.91632,-1.66523 -0.0649,-0.5204 -0.15266,-1.08935 -0.54071,-1.47295 -0.97935,-0.6632 -1.94972,-1.364 -3.13074,-1.5353 -0.50816,-0.0819 -1.01798,-0.14511 -1.53179,-0.0686 -0.24253,0.0298 -0.49116,0.0516 -0.72018,0.14447 -0.81078,0.32893 0.60853,0.62885 1.44168,1.17419 0.0109,0.007 0.002,-0.0261 0.003,-0.0391 0.19383,-0.28453 0.44155,-0.51711 0.78393,-0.60562 0.44106,-0.14565 0.8917,-0.17905 1.35522,-0.1438 0.30258,0.0152 0.60522,0.0287 0.90245,0.0932 0.68461,0.14874 1.78881,0.90047 -0.88335,-0.64969 0.66812,0.45097 1.21674,1.04901 1.71426,1.67943 0.27127,0.54823 0.32133,0.82202 -0.0336,1.34431 -0.006,0.009 -0.28707,0.42532 -0.28853,0.42796 -0.16686,0.30176 -0.25613,0.64878 -0.395,0.96277 -0.19117,0.48728 -0.53985,0.84681 -0.97178,1.13989 -0.45407,0.26712 -0.88656,0.51684 -1.42592,0.56535 -0.49188,0.0911 -0.98937,0.13543 -1.48529,0.0415 -0.21745,-0.0429 -0.30188,-0.0518 -0.51049,-0.1232 -0.0838,-0.0287 -0.32189,-0.14498 -0.24687,-0.098 2.6668,1.6715 1.55341,0.90225 0.9533,0.55272 -0.43758,-0.28612 -0.76996,-0.61859 -0.8855,-1.15005 -0.111,-0.72951 -0.0589,-1.47128 0.13517,-2.18358 0.1127,-0.36833 0.29805,-1.138 0.70572,-1.30198 0.066,-0.0265 0.13984,-0.0258 0.20976,-0.0387 0.69233,0.0707 1.38102,0.23158 2.04092,0.44946 0.64405,0.26165 1.28981,0.51886 2.00138,0.47432 0.26897,-0.0462 0.44189,-0.0744 0.43259,-0.0834 -1.27711,-1.2367 -0.92494,-1.29952 -1.79295,-1.09679 -0.49528,0.13256 -0.99178,0.13342 -1.50279,0.1127 -0.48118,-0.001 -0.96585,-0.0156 -1.44336,0.0545 -0.41057,0.0955 -0.75527,0.27321 -0.96397,0.65894 -0.18051,0.37932 -0.30424,0.78922 -0.38226,1.20138 -0.054,0.45799 0.019,0.92615 0.14007,1.36875 0.067,0.18018 0.10981,0.3275 0.21779,0.48951 0.54099,0.8117 1.61557,1.10707 2.48945,1.48459 0.44505,0.11314 0.8957,0.0774 1.34556,-0.003 0.47664,-0.11501 0.92151,-0.31101 1.33453,-0.577 0.43086,-0.37956 0.71828,-0.83514 0.91334,-1.37705 0.25777,-0.69107 0.52422,-1.37884 0.74436,-2.08283 z" /><path
       style="fill:#ffff00;fill-opacity:1;stroke-width:0.264583"
       id="path54"
       d="m 126.58717,108.05254 c 5.23123,-1.39856 10.47992,-2.72785 15.73023,-4.05263 5.40858,-1.36082 10.80255,-2.79089 16.26043,-3.94552 0.9665,-0.204464 1.93754,-0.386826 2.90631,-0.580236 0,0 -1.34008,-0.932006 -1.34008,-0.932006 v 0 c -6.37391,1.396315 -12.68327,3.054222 -19.01192,4.639992 -5.37044,1.31572 -10.74201,2.64629 -16.16215,3.74354 z" /><path
       style="fill:#ffff00;fill-opacity:1;stroke-width:0.264583"
       id="path55"
       d="m 154.98132,111.15008 c 0.21343,-0.0312 0.4291,-0.0499 0.6403,-0.0937 0.98333,-0.20415 4.6108,-1.08663 5.04547,-1.1926 3.76559,-0.91799 6.50184,-1.59215 10.32295,-2.60856 1.98232,-0.5273 3.95705,-1.08275 5.93557,-1.62413 5.99344,-1.71477 11.92845,-3.65901 17.69842,-6.025592 0.79875,-0.32761 1.58685,-0.680585 2.38028,-1.020879 0,0 -1.39932,-0.92923 -1.39932,-0.92923 v 0 c -0.76433,0.357656 -1.52183,0.73025 -2.29297,1.072968 -5.63317,2.503563 -11.47763,4.507453 -17.39974,6.206793 -1.98577,0.5353 -3.96417,1.09871 -5.9573,1.6059 -3.51323,0.89402 -7.03733,1.68146 -10.58447,2.42275 -1.54439,0.32276 -3.65286,0.75619 -5.31142,0.98173 -0.22419,0.0305 -0.45162,0.0282 -0.67744,0.0424 z" /><path
       style="fill:#ffff00;fill-opacity:1;stroke-width:0.264583"
       id="path56"
       d="m 158.09049,173.10488 c 0.22416,-0.11653 0.45423,-0.22234 0.67249,-0.34958 1.03161,-0.60142 3.21319,-2.00459 3.98879,-2.50335 1.90251,-1.22343 6.04602,-3.90412 7.74216,-5.09155 1.51369,-1.0597 2.98114,-2.18398 4.47171,-3.27597 4.87025,-3.70081 9.37799,-7.84334 13.83907,-12.0187 0,0 -1.33832,-0.8234 -1.33832,-0.8234 v 0 c -4.30977,4.28958 -8.72599,8.49234 -13.60331,12.14231 -1.50378,1.08087 -2.97835,2.20358 -4.51134,3.24261 -1.92715,1.30617 -5.83241,3.68636 -7.96321,4.94315 -1.05473,0.6221 -2.96691,1.72927 -4.21393,2.33161 -0.22489,0.10863 -0.46469,0.18318 -0.69703,0.27477 z" /><path
       style="fill:#ffff00;fill-opacity:1;stroke-width:0.264583"
       id="path57"
       d="m 169.15928,151.23114 c 4.82615,-3.9179 9.85136,-7.58059 14.56539,-11.63764 4.22851,-3.63921 4.98357,-4.48213 8.91831,-8.29957 3.08959,-3.05521 5.97648,-6.30002 8.82519,-9.57695 0,0 -1.34906,-0.8107 -1.34906,-0.8107 v 0 c -0.71317,0.87901 -1.4099,1.77163 -2.13951,2.63704 -2.79866,3.31958 -3.28709,3.74779 -6.41304,7.08933 -3.86717,3.81187 -4.66259,4.73442 -8.88076,8.30971 -4.79703,4.06593 -9.94618,7.67361 -15.07013,11.30744 z" /><circle
       id="path58"
       style="fill:#ffff00;stroke:#000000;stroke-width:0.264583"
       cx="60.310345"
       cy="173.53448"
       r="0.012631034" /><path
       style="fill:#ff0000;fill-opacity:1;stroke-width:0.264583"
       id="path59"
       d="m 111.44354,102.9438 c 0.0752,-2.60257 0.0732,-5.209668 0.25705,-7.808202 0.0441,-0.62326 0.11306,-1.244512 0.16958,-1.86677 0.31042,-2.674361 0.68568,-5.3808 1.64201,-7.914145 0.17012,-0.45066 0.37689,-0.886619 0.56533,-1.329928 0.58255,-1.098339 1.23182,-2.201715 2.12944,-3.079459 0.23042,-0.225311 0.46331,-0.462598 0.74957,-0.610629 0.77927,-0.402979 1.20813,-0.236519 2.0524,-0.165796 1.13885,0.298865 1.36401,0.302384 2.44542,0.815252 0.38476,0.182476 0.77742,0.361956 1.1192,0.615974 0.16291,0.121087 -0.66718,-0.388437 -0.5719,-0.209201 0.18995,0.357331 0.62629,0.517473 0.8961,0.819084 0.31864,0.35619 0.57446,0.763934 0.86169,1.145903 0.26092,0.497432 0.54836,0.981829 0.78276,1.492295 0.94827,2.065168 1.62497,4.462465 1.97066,6.709246 0.077,0.500491 0.11258,1.006483 0.16888,1.509723 0.0898,1.769237 -0.24387,3.509372 -1.0349,5.097314 -0.34609,0.694756 -0.56391,0.95413 -1.00038,1.567833 -1.00641,1.214696 -2.44423,1.833186 -3.91286,2.296186 -1.21987,0.32944 -2.49897,0.53211 -3.76622,0.53671 -0.30091,0.001 -0.60118,-0.0278 -0.90178,-0.0417 -1.55068,-0.0982 -3.04046,-0.33223 -4.47763,-0.93309 -0.17429,-0.0845 -0.35179,-0.1627 -0.52285,-0.25358 -0.16237,-0.0863 -0.63841,-0.365 -0.47672,-0.27747 0.41297,0.22355 0.80815,0.48072 1.23067,0.68562 0.12808,0.0621 -0.23839,-0.15794 -0.34255,-0.25495 -0.25706,-0.23941 -0.30047,-0.36703 -0.46929,-0.66409 -0.20548,-0.45218 -0.10677,-0.22871 -0.29661,-0.67021 0,0 -1.77706,-0.815989 -1.77706,-0.815989 v 0 c 0.1943,0.447722 0.0955,0.21877 0.29632,0.686909 0.12926,0.26264 0.23447,0.52395 0.43939,0.74228 0.10032,0.10689 0.22035,0.19554 0.34486,0.27291 0.99654,0.61918 2.00827,1.25571 3.08459,1.73676 1.4358,0.55132 2.95562,0.77564 4.48814,0.85959 0.30687,0.0107 0.61358,0.0353 0.92063,0.0321 1.28269,-0.0134 2.57607,-0.21629 3.8069,-0.56768 1.49306,-0.50183 2.95359,-1.14868 3.96122,-2.4113 0.44127,-0.64749 0.63909,-0.888889 0.98864,-1.619031 0.77875,-1.626618 1.12899,-3.401052 1.03826,-5.201967 -0.0571,-0.509154 -0.0922,-1.021255 -0.17126,-1.527461 -0.34613,-2.215854 -1.06345,-4.705458 -1.95802,-6.758128 -0.22359,-0.513048 -0.49499,-1.003906 -0.74248,-1.50586 -0.27454,-0.389305 -0.51488,-0.805132 -0.82362,-1.167916 -0.92703,-1.089332 -2.27749,-1.753385 -3.46717,-2.464847 -1.12197,-0.67096 -2.33789,-1.145916 -3.62598,-1.377781 -0.92727,-0.03964 -1.3162,-0.194519 -2.14945,0.271076 -0.28875,0.161346 -0.52269,0.408715 -0.75373,0.645417 -0.88763,0.909365 -1.52554,2.040414 -2.11902,3.150174 -0.18943,0.448418 -0.39773,0.88932 -0.56828,1.34525 -0.95472,2.552158 -1.32404,5.280353 -1.61871,7.973346 -0.0548,0.625647 -0.12102,1.250397 -0.16432,1.876943 -0.17775,2.57201 -0.16635,5.15715 -0.44607,7.722025 z" /><path
       style="fill:#ff0000;fill-opacity:1;stroke-width:0.264583"
       id="path60"
       d="m 167.8876,94.576002 c -1.04747,-1.808512 -1.78969,-3.826272 -1.77766,-5.943568 0.003,-0.473917 0.0884,-0.943713 0.13268,-1.415569 0.34366,-1.413618 0.79861,-3.014308 2.12024,-3.839281 0.71837,-0.448416 1.00618,-0.389046 1.81905,-0.480883 0.6895,0.06034 1.18043,0.04869 1.83113,0.320389 0.29124,0.121605 0.77102,0.163759 0.8186,0.475753 0.0407,0.26662 -0.7681,-0.487249 -0.77925,-0.217776 -0.017,0.411223 0.53804,0.628441 0.74759,0.982678 0.2333,0.394388 0.38194,0.83307 0.57291,1.249606 0.68596,2.187618 0.9529,4.572169 0.34582,6.816363 -0.0968,0.357864 -0.24934,0.698269 -0.37401,1.047406 -0.26311,0.535903 -0.74984,1.73683 -1.32698,2.048732 -0.16398,0.08862 -0.36795,0.108913 -0.55275,0.08458 -0.20677,-0.02723 -0.75703,-0.344553 -0.58033,-0.23378 0.32228,0.202043 0.68056,0.339965 1.02085,0.509947 -1.00461,-0.83706 -1.8009,-1.882992 -2.63027,-2.88557 0,0 -1.78814,-0.760166 -1.78814,-0.760166 v 0 c 0.84454,1.014473 1.674,2.051336 2.64468,2.949646 0.15274,0.09159 2.07258,1.53561 2.91643,1.516063 1.07766,-0.02498 1.54351,-1.566151 1.92346,-2.329926 0.12458,-0.359524 0.27681,-0.710629 0.37374,-1.078569 0.60003,-2.277509 0.34134,-4.69316 -0.31144,-6.923384 -0.29454,-0.697433 -0.63562,-1.75982 -1.25562,-2.290754 -0.74193,-0.63536 -1.59032,-1.135909 -2.41106,-1.665565 -0.8364,-0.539764 -1.73563,-0.714719 -2.71996,-0.699556 -0.84782,0.131858 -1.13673,0.08323 -1.8762,0.57463 -1.33722,0.888635 -1.79654,2.520053 -2.1424,3.987678 -0.0467,0.482031 -0.13391,0.961848 -0.14008,1.446096 -0.0269,2.109444 0.65532,4.128815 1.63102,5.971196 z" /><path
       style="fill:#ff0000;fill-opacity:1;stroke-width:0.264583"
       id="path61"
       d="m 167.19331,171.24601 c -0.40246,-3.57502 -1.26893,-7.1254 -0.95741,-10.74989 0.0673,-0.78305 0.25215,-1.55152 0.37823,-2.32727 0.23493,-0.63907 0.41972,-1.29887 0.70479,-1.9172 0.70692,-1.53334 2.0557,-3.41362 3.86166,-3.70785 0.33823,-0.0551 0.68535,0.006 1.02803,0.01 0.35027,0.0818 0.7082,0.1358 1.05079,0.24533 0.61842,0.19772 1.45626,0.60984 2.0285,0.91788 0.28699,0.15449 1.17186,0.48533 0.84597,0.49028 -0.25917,0.004 -1.7614,-1.08012 -0.35973,-0.0996 0.16071,0.16285 0.3426,0.30723 0.48213,0.48856 0.41968,0.54538 0.67732,1.17061 0.92202,1.80823 0.56144,1.46292 0.93157,2.97744 1.30704,4.49523 0.49627,2.13751 0.83896,3.97192 0.0623,6.10297 -0.37166,1.01972 -0.73074,1.4712 -1.30386,2.35325 -0.69778,0.94741 -1.48722,1.94909 -2.6457,2.3426 -0.13244,0.045 -0.27129,0.0683 -0.40693,0.10243 -0.36146,0.0392 -0.73871,0.1142 -1.1048,0.0793 -0.31966,-0.0304 -0.66144,-0.15344 -0.97037,-0.23354 -0.92575,-0.22718 -1.89114,-0.20575 -2.81098,-0.45146 -0.0998,-0.0376 -0.20367,-0.0658 -0.29938,-0.11285 -0.18325,-0.0901 -0.34375,-0.22146 -0.52467,-0.3161 -0.36446,-0.19063 -0.77081,-0.32107 -1.1478,-0.4833 -1.21041,-0.60176 -2.45533,-1.13118 -3.64484,-1.77435 -0.85845,-0.45509 -0.52762,-0.2849 0.96277,0.56461 0,0 -1.8239,-0.70346 -1.8239,-0.70346 v 0 c 2.10621,1.21951 1.30462,0.79127 2.3684,1.35063 1.19737,0.62474 2.43829,1.15999 3.6491,1.75779 0.29536,0.12783 0.59548,0.24498 0.88732,0.38067 0.27959,0.12999 0.53239,0.31461 0.82029,0.42719 0.10003,0.0391 0.20522,0.0635 0.30782,0.0952 0.9282,0.19163 1.88701,0.20113 2.80555,0.45177 0.75286,0.19023 1.3591,0.26435 2.13081,0.0683 0.13996,-0.0433 0.28381,-0.0755 0.41986,-0.12985 1.15714,-0.46193 1.93014,-1.5028 2.61802,-2.48817 0.80627,-1.294 1.45767,-2.37403 1.70669,-3.92335 0.25562,-1.59032 -0.0883,-3.14038 -0.43672,-4.68391 -0.36764,-1.51219 -0.72757,-3.02348 -1.24227,-4.49443 -0.21658,-0.61896 -0.46145,-1.29787 -0.84057,-1.84754 -0.1329,-0.19268 -0.31122,-0.34972 -0.46683,-0.52458 -1.25057,-0.88639 -0.56803,-0.42497 -2.88123,-1.78374 -0.90941,-0.53418 -1.87912,-1.06021 -2.89805,-1.35391 -0.35297,-0.10174 -0.72063,-0.14297 -1.08095,-0.21445 -0.35305,0.0148 -0.71357,-0.0294 -1.05913,0.0444 -1.8213,0.38898 -3.14681,2.324 -3.84047,3.90634 -0.27841,0.63511 -0.4572,1.30938 -0.6858,1.96407 -0.1217,0.78695 -0.29963,1.56723 -0.36509,2.36084 -0.26451,3.20663 0.36582,6.35619 0.66151,9.53153 0.034,0.36542 0.0376,0.73304 0.0565,1.09955 z" /><path
       style="fill:#ff0000;fill-opacity:1;stroke-width:0.264583"
       id="path62"
       d="m 132.93221,181.9614 c 0.0628,-1.22526 -0.14486,-2.45967 0.12831,-3.6758 0.33531,-1.49278 1.03468,-2.98362 1.93899,-4.21188 0.5291,-0.71866 1.19663,-1.32429 1.79495,-1.98644 0.71888,-0.54072 1.38347,-1.1624 2.15664,-1.62216 2.01428,-1.19778 4.443,-1.79055 6.77701,-1.76725 1.56166,0.0156 1.99934,0.22623 3.44373,0.61779 0.42404,0.19696 0.85318,0.38329 1.27213,0.59087 0.17599,0.0872 -0.62567,-0.4075 -0.54272,-0.22946 0.15437,0.33134 0.55399,0.48139 0.7901,0.76044 0.49163,0.58104 0.79266,1.18774 0.96974,1.93154 0.0944,0.39632 0.10227,0.80835 0.1534,1.21252 -0.0314,0.43927 -0.0282,0.88237 -0.0941,1.31779 -0.21644,1.43057 -0.88964,3.38091 -1.86661,4.48182 -0.26029,0.2933 -0.58546,0.52187 -0.87818,0.78281 -1.59463,1.06054 -3.39463,1.84277 -5.28734,2.1857 -1.22355,0.22168 -2.06953,0.19204 -3.31352,0.22208 -1.47412,-0.0633 -2.9714,-0.11861 -4.40635,-0.50177 -0.94288,-0.25177 -1.78853,-0.67414 -2.62416,-1.16248 0,0 1.47709,1.19405 1.47709,1.19405 v 0 c 0.83838,0.45918 1.67936,0.85189 2.61598,1.07888 1.43309,0.34729 2.91983,0.38087 4.3844,0.43688 1.28986,-0.0357 2.08886,-0.006 3.35566,-0.24219 1.92171,-0.35907 3.74749,-1.16148 5.37026,-2.23581 0.30296,-0.27225 0.64007,-0.51073 0.90887,-0.81675 0.98547,-1.12187 1.65281,-3.13039 1.89034,-4.57789 0.0728,-0.44391 0.0809,-0.89605 0.12131,-1.34407 -0.10273,-1.00817 -0.0577,-1.42968 -0.48649,-2.35527 -0.9429,-2.03516 -3.31073,-2.98238 -5.23582,-3.82194 -1.44519,-0.3556 -1.87466,-0.55128 -3.42912,-0.53377 -2.34509,0.0264 -4.75719,0.66983 -6.76932,1.88824 -0.7779,0.47104 -1.4498,1.09823 -2.1747,1.64734 -0.61143,0.66765 -1.28993,1.27958 -1.8343,2.00296 -0.89318,1.18692 -1.68793,2.77805 -2.06579,4.22766 -0.30384,1.1657 -0.15371,2.37188 -0.26868,3.55371 z" /><path
       style="fill:#ff0000;fill-opacity:1;stroke-width:0.264583"
       id="path63"
       d="m 183.49471,114.71843 c -0.52522,-2.50847 -0.76616,-5.06211 -0.67338,-7.62499 0.0258,-0.71265 0.0975,-1.42289 0.14623,-2.13434 0.15482,-1.84785 0.40828,-3.69326 0.8785,-5.489717 0.2189,-0.836282 0.39638,-1.489741 0.88801,-2.199415 0.17281,-0.249457 0.40957,-0.447916 0.61435,-0.671872 0.23557,-0.143851 0.44958,-0.331187 0.7067,-0.431549 0.89012,-0.347448 1.96316,-0.181443 2.69369,0.443325 0.12905,0.110366 -0.58619,-0.248171 -0.499,-0.102467 0.24149,0.403532 0.6804,0.649369 1.02059,0.974055 1.22553,1.339353 2.06174,2.93431 2.53816,4.68105 0.22943,0.84119 0.26582,1.27914 0.38397,2.12082 0.17423,1.65094 -0.082,2.905 -0.84027,4.38562 -0.14573,0.28456 -0.32249,0.55212 -0.48373,0.82818 -0.58737,0.88215 -1.288,1.7465 -2.19623,2.32034 -0.52914,0.33432 -0.77118,0.38703 -1.3551,0.59991 -0.78862,0.20602 -1.60681,0.40643 -2.42821,0.41683 -0.3076,0.004 -0.61815,-0.048 -0.92168,-0.0886 -0.13358,-0.0355 -0.51128,-0.12921 -0.65106,-0.19038 -0.0865,-0.0379 -0.32774,-0.18771 -0.24559,-0.14117 0.47843,0.27103 0.95627,0.54309 1.4344,0.81463 0,0 -1.83098,-0.70914 -1.83098,-0.70914 v 0 c 1.02912,0.5977 1.74385,1.20885 2.85355,1.38723 0.36229,0.035 0.5643,0.0666 0.93603,0.0495 0.8269,-0.0379 1.64449,-0.24411 2.43436,-0.47504 0.60375,-0.23355 0.83998,-0.28834 1.38593,-0.64589 0.91801,-0.60124 1.62134,-1.49019 2.21151,-2.39848 0.64162,-1.11326 1.26402,-2.28498 1.41459,-3.5847 0.0658,-0.56789 -2.7e-4,-1.17762 -0.0367,-1.74257 -0.12555,-0.84674 -0.17216,-1.31718 -0.40018,-2.16315 -0.47676,-1.7688 -1.29439,-3.396362 -2.51707,-4.769724 -1.56169,-1.541058 -1.04874,-1.166128 -3.65674,-2.725169 -0.74033,-0.442561 -1.14629,-0.61372 -1.97976,-0.52718 -0.29324,0.03045 -0.58756,0.09859 -0.85725,0.217707 -0.26558,0.117306 -0.48386,0.321011 -0.72579,0.481518 -0.20703,0.240581 -0.44754,0.455991 -0.62107,0.721741 -0.48912,0.749036 -0.64506,1.401951 -0.85357,2.273768 -0.43524,1.819839 -0.67106,3.681109 -0.83197,5.542909 -0.13164,1.83258 -0.21258,2.4241 -0.19217,4.25737 0.0203,1.81951 0.24906,3.62186 0.49799,5.42114 z" /><circle
       id="path64"
       style="fill:#ff0000;stroke:#000000;stroke-width:0.264583"
       cx="182.82758"
       cy="112.27586"
       r="0.012631034" /><path
       style="fill:#ff0000;fill-opacity:1;stroke-width:0.716807"
       d="m 430.08417,385.95403 c -2.56258,-0.55426 -5.54567,-1.3739 -6.62908,-1.82142 l -1.96984,-0.81367 0.40186,-10.48651 c 0.47123,-12.2968 2.09009,-28.33088 3.62794,-35.93316 2.70224,-13.35836 8.40022,-25.49071 14.60405,-31.09549 3.47483,-3.13931 6.60463,-3.38614 13.99442,-1.10366 8.6245,2.66383 14.0154,9.32827 19.00571,23.49558 7.54301,21.4143 6.71572,37.08734 -2.56181,48.53365 -6.69292,8.25751 -25.31815,12.50258 -40.47325,9.22468 z"
       id="path65"
       transform="scale(0.26458333)" /><path
       style="fill:#ff0000;fill-opacity:1;stroke-width:0.716807"
       d="m 693.28273,425.16229 c -1.53551,-0.97365 -2.48144,-14.65724 -1.67426,-24.21951 0.38256,-4.53201 0.80578,-8.32185 0.9405,-8.42186 0.21872,-0.16237 26.41858,-9.26836 29.40602,-10.22032 1.64909,-0.52549 3.43295,5.40476 3.96643,13.18594 0.34288,5.00117 0.15623,6.58752 -1.22291,10.3937 -3.5114,9.69083 -9.46461,16.13573 -17.07637,18.48676 -4.66473,1.44079 -12.62514,1.88229 -14.33941,0.79529 z"
       id="path66"
       transform="scale(0.26458333)" /><path
       style="fill:#ff0000;fill-opacity:1;stroke-width:0.716807"
       d="m 692.56486,389.85528 c 0.17605,-1.16925 1.39025,-1.93169 5.24671,-3.29458 2.7597,-0.9753 9.15067,-3.38847 14.20214,-5.36261 5.05147,-1.97414 9.28536,-3.47529 9.40865,-3.33589 0.12328,0.13941 0.43631,0.94482 0.69562,1.7898 0.42621,1.3888 -0.13309,1.75789 -5.82461,3.84367 -8.76432,3.21189 -22.59,7.88093 -23.33653,7.88093 -0.34157,0 -0.51796,-0.6846 -0.39198,-1.52132 z"
       id="path67"
       transform="scale(0.26458333)" /><path
       style="fill:#ff0000;fill-opacity:1;stroke-width:0.716807"
       d="m 693.16784,386.17974 c 0.0442,-2.55554 2.95701,-13.70365 4.235,-16.20871 2.09332,-4.10325 5.5641,-6.54991 9.29157,-6.54991 2.69825,0 3.3905,0.39321 6.62531,3.76324 4.78133,4.98118 7.4858,9.01148 6.62479,9.87249 -0.6595,0.6595 -25.18402,10.0189 -26.2526,10.0189 -0.29677,0 -0.53261,-0.4032 -0.52407,-0.89601 z"
       id="path68"
       transform="scale(0.26458333)" /><path
       style="fill:#ff0000;fill-opacity:1;stroke-width:0.716807"
       d="m 652.94625,649.12328 c -0.16709,-0.16709 -3.11922,-0.79523 -6.56027,-1.39586 -3.44105,-0.60062 -8.15957,-1.96559 -10.4856,-3.03326 -4.08005,-1.87278 -4.24468,-2.05454 -4.6697,-5.15545 -0.74868,-5.46219 -0.74946,-5.46088 5.8315,-9.83453 7.87049,-5.23067 23.25377,-16.46484 30.1687,-22.03173 2.89281,-2.32888 5.44407,-4.0499 5.66946,-3.82451 0.969,0.969 3.01592,12.67183 3.03156,17.33227 0.0209,6.23675 -1.70836,11.5912 -5.58912,17.30589 -3.67376,5.40985 -7.92885,9.2177 -11.36726,10.17249 -2.83592,0.78749 -5.50106,0.9929 -6.02927,0.46469 z"
       id="path69"
       transform="scale(0.26458333)" /><path
       style="fill:#ff0000;fill-opacity:1;stroke-width:0.716807"
       d="m 646.10528,647.27188 c -7.09579,-1.60342 -12.98322,-4.05111 -13.91016,-5.78311 -0.37851,-0.70725 -0.6882,-2.54115 -0.6882,-4.07532 0,-3.33932 0.18699,-3.52336 11.82732,-11.64141 4.73092,-3.29938 13.2668,-9.50079 18.96861,-13.78092 8.93214,-6.70501 10.43473,-7.59879 10.85678,-6.45786 1.21079,3.27307 2.23095,12.79941 1.92909,18.01394 -0.39608,6.84201 -2.94215,12.64129 -8.14736,18.55753 -5.93494,6.74566 -9.70887,7.68156 -20.83608,5.16715 z"
       id="path70"
       transform="scale(0.26458333)" /><path
       style="fill:#ff0000;fill-opacity:1;stroke-width:0.716807"
       d="m 630.07331,630.56371 c 0,-2.01781 0.42378,-2.61501 2.80552,-3.95362 3.94299,-2.21609 21.14533,-14.5184 30.5119,-21.82068 4.32892,-3.37488 8.11904,-5.98271 8.42248,-5.79517 0.30344,0.18754 0.55171,1.08495 0.55171,1.99425 0,1.24592 -1.81034,3.06652 -7.34727,7.38894 -11.75442,9.1761 -33.39972,24.56311 -34.55357,24.56311 -0.21492,0 -0.39077,-1.06958 -0.39077,-2.37683 z"
       id="path71"
       transform="scale(0.26458333)" /><path
       style="fill:#ff0000;fill-opacity:1;stroke-width:0.716807"
       d="m 630.91435,630.38446 c 0.18969,-1.61344 1.52779,-2.8714 7.04384,-6.62195 3.74531,-2.54657 12.40944,-8.80474 19.25361,-13.90703 6.84417,-5.1023 12.89223,-9.44892 13.44013,-9.65917 2.11741,-0.81253 0.8613,1.86327 -2.19881,4.68399 -3.63735,3.35279 -18.94366,14.80027 -29.06132,21.73476 -9.23873,6.33208 -8.75337,6.11627 -8.47745,3.7694 z"
       id="path72"
       transform="scale(0.26458333)" /><path
       style="fill:#ff0000;fill-opacity:1;stroke-width:0.716807"
       d=""
       id="path73"
       transform="scale(0.26458333)" /><path
       style="fill:#ff0000;fill-opacity:1;stroke-width:0.716807"
       d="m 629.09957,624.12076 c -0.78348,-6.52185 -0.47037,-18.61025 0.61471,-23.73217 0.57733,-2.72519 2.00547,-6.99735 3.17365,-9.49369 5.78614,-12.36471 13.02957,-16.23106 23.24655,-12.4084 6.27403,2.34742 9.61936,5.20844 11.97258,10.23928 3.92608,8.39338 3.99455,8.1494 -4.09201,14.58019 -7.75031,6.16339 -24.09842,17.97233 -30.44167,21.98932 l -4.0264,2.54981 z"
       id="path74"
       transform="scale(0.26458333)" /><path
       style="fill:#ff0000;fill-opacity:1;stroke-width:0.264583"
       id="path75"
       d="m 132.76283,181.06953 c 0.69383,0.36654 1.40706,0.70023 2.08498,1.0959 0.38821,0.17661 0.74063,0.42457 1.14999,0.55349 0.30165,0.095 0.59782,0.15137 0.90677,0.21848 0.5035,0.0968 1.0137,0.14732 1.52319,0.19899 0,0 -1.5573,-1.15621 -1.5573,-1.15621 v 0 c -0.50515,-0.0535 -1.01107,-0.10706 -1.50786,-0.21756 -0.74454,-0.18285 -1.37856,-0.43088 -2.03541,-0.82631 -0.69477,-0.38026 -1.40442,-0.73342 -2.10635,-1.10022 z" /><path
       style="fill:#ff0000;fill-opacity:1;stroke-width:0.264583"
       id="path76"
       d="m 167.25492,92.505627 c -2.70961,-1.666124 -1.34164,-0.774499 -0.78516,-0.336632 0.26728,0.210304 0.52686,0.431686 0.78948,0.647792 1.11815,0.951429 2.39545,1.72873 3.77284,2.239291 0.17458,-0.05879 0.87045,0.446455 1.02798,0.431321 0.42321,-0.04065 0.81345,-0.930026 0.97365,-1.218637 0.12154,-0.213492 0.24309,-0.426982 0.36464,-0.640474 0,0 -1.65215,-0.953984 -1.65215,-0.953984 v 0 c -0.12442,0.212021 -0.24885,0.42404 -0.37328,0.636061 -0.12624,0.212061 -0.38919,0.721114 -0.62117,0.901959 -0.062,0.04832 -0.15059,0.06823 -0.22853,0.05808 -0.25897,-0.03372 -0.7456,-0.401081 -1.02016,-0.414316 -0.61201,-0.249433 -2.16487,-1.056076 0.45571,0.377325 0.10566,0.05779 -0.19699,-0.138716 -0.29268,-0.211839 -0.20025,-0.153016 -0.38884,-0.320915 -0.59047,-0.472209 -1.05227,-0.878327 -2.0789,-1.711889 -3.35777,-2.287299 z" /></g></svg>
